<?xml version="1.0" encoding="utf-8"?>
<svg xmlns="http://www.w3.org/2000/svg" viewBox="8.849 309.835 494.624 179.747">
  <path d="M 74.505 326.595 C 82.411 331.489 87.013 337.565 91.505 345.595 C 92.156 346.712 92.156 346.712 92.821 347.853 C 93.733 349.423 94.622 351.007 95.505 352.595 C 98.513 351.262 100.43 349.857 102.606 347.4 C 103.174 346.77 103.741 346.14 104.326 345.491 C 104.921 344.824 105.516 344.157 106.13 343.47 C 114.301 334.551 121.792 327.399 133.505 323.595 C 134.495 323.265 135.485 322.935 136.505 322.595 C 150.261 321.682 162.123 323.151 173.505 331.595 C 174.109 332.036 174.714 332.477 175.337 332.931 C 182.46 338.549 187.992 346.559 189.505 355.595 C 190.633 370.036 189.41 382.665 180.505 394.595 C 175.544 400.362 170.012 405.605 164.567 410.907 C 163.124 412.334 161.682 413.762 160.241 415.191 C 154.394 420.964 148.548 426.654 142.283 431.977 C 140.52 433.58 139.014 435.255 137.505 437.095 C 135.506 439.512 133.465 441.573 131.067 443.595 C 124.133 449.47 117.885 456.133 111.505 462.595 C 107.772 461.038 105.419 458.745 102.588 455.889 C 102.112 455.412 101.637 454.936 101.147 454.444 C 99.579 452.87 98.019 451.289 96.458 449.708 C 95.362 448.606 94.266 447.505 93.169 446.404 C 90.281 443.503 87.399 440.596 84.518 437.687 C 79.923 433.05 75.322 428.418 70.717 423.79 C 69.119 422.183 67.525 420.571 65.932 418.96 C 61.175 414.164 56.376 409.489 51.241 405.098 C 46.943 401.377 42.994 397.271 38.977 393.252 C 37.381 391.659 35.777 390.073 34.173 388.487 C 17.383 371.797 17.383 371.797 16.942 358.595 C 17.081 348.527 20.931 340.071 27.817 332.595 C 41.608 320.326 58.039 317.918 74.505 326.595 Z" fill="#0CB6C0" style="stroke-width: 1;"/>
  <path d="M 54.755 343.157 C 55.461 343.117 56.167 343.077 56.895 343.036 C 64.735 344.714 70.545 351.227 75.942 356.739 C 76.708 357.509 77.473 358.279 78.262 359.072 C 80.683 361.51 83.094 363.959 85.505 366.407 C 87.154 368.071 88.803 369.735 90.454 371.398 C 94.479 375.455 98.495 379.522 102.505 383.595 C 106.622 381.707 109.392 378.928 112.512 375.712 C 113.079 375.138 113.646 374.564 114.23 373.972 C 116.034 372.143 117.833 370.307 119.63 368.47 C 122.001 366.045 124.38 363.627 126.762 361.212 C 127.581 360.368 127.581 360.368 128.416 359.508 C 129.742 358.165 131.119 356.875 132.505 355.595 C 133.165 355.595 133.058 354.761 133.738 354.761 C 133.738 354.101 134.505 354.275 134.505 353.595 C 138.529 349.986 142.788 350.146 147.923 350.318 C 151.277 350.678 152.968 351.348 155.505 353.595 C 156.041 354.047 156.577 354.5 157.13 354.966 C 161.47 359.155 162.196 362.736 162.301 368.653 C 160.137 376.643 152.537 382.833 146.825 388.47 C 145.606 389.685 145.606 389.685 144.362 390.924 C 141.789 393.486 139.209 396.04 136.63 398.595 C 134.874 400.34 133.119 402.087 131.364 403.833 C 127.083 408.092 122.796 412.346 118.505 416.595 C 112.801 411.857 107.567 406.773 102.352 401.505 C 101.493 400.642 100.634 399.78 99.749 398.891 C 96.1 395.225 92.457 391.554 88.813 387.883 C 86.141 385.193 83.465 382.505 80.79 379.818 C 79.978 378.998 79.166 378.178 78.33 377.333 C 74.093 373.077 69.785 368.983 65.218 365.082 C 62.689 362.887 60.356 360.542 58.005 358.157 C 57.149 357.292 56.293 356.427 55.411 355.536 C 54.782 354.896 54.153 354.255 53.505 353.595 C 49.753 355.297 47.109 357.597 44.09 360.353 C 42.505 361.595 42.505 361.595 40.505 361.595 C 39.822 355.224 40.847 352.272 44.801 347.259 C 47.798 344.331 50.597 343.284 54.755 343.157 Z" fill="#F2F5F6" style="stroke-width: 1;"/>
  <path d="M 42.475 361.121 C 42.99 361.781 43.506 362.441 44.037 363.121 C 48.509 368.625 52.813 373.8 58.475 378.121 C 61.287 380.746 61.287 380.746 63.475 383.121 C 63.378 383.71 64.356 383.84 64.457 384.595 C 65.445 385.062 65.453 385.927 66.475 386.121 C 68.053 387.722 68.053 387.722 69.725 389.746 C 74.009 394.788 78.478 399.542 83.6 403.746 C 87.226 406.741 90.478 409.826 93.35 413.558 C 95.135 415.711 96.78 417.29 98.912 419.058 C 101.227 420.981 102.964 422.711 104.912 425.058 C 107.02 427.577 108.994 429.512 111.475 431.621 C 114.92 434.556 117.642 437.599 120.475 441.121 C 122.104 442.831 123.78 444.475 125.475 446.121 C 123.816 450.446 120.603 453.215 117.35 456.371 C 116.786 456.925 116.223 457.479 115.643 458.051 C 114.258 459.412 112.867 460.767 111.475 462.121 C 107.742 460.564 105.389 458.271 102.558 455.415 C 102.082 454.938 101.607 454.462 101.117 453.97 C 99.549 452.396 97.989 450.815 96.428 449.234 C 95.332 448.132 94.236 447.031 93.139 445.93 C 90.251 443.029 87.369 440.122 84.488 437.213 C 79.893 432.576 75.292 427.944 70.687 423.316 C 69.089 421.709 67.495 420.097 65.902 418.486 C 61.148 413.694 56.353 409.023 51.222 404.635 C 48.528 402.3 46.001 399.81 43.478 397.293 C 42.959 396.777 42.44 396.261 41.906 395.73 C 40.827 394.656 39.749 393.58 38.672 392.504 C 37.021 390.855 35.362 389.214 33.703 387.574 C 32.649 386.522 31.594 385.47 30.541 384.418 C 30.046 383.93 29.552 383.443 29.042 382.94 C 26.778 380.661 25.507 379.219 24.475 376.121 C 25.187 375.541 25.9 374.961 26.635 374.363 C 31.971 370.011 37.271 365.631 42.475 361.121 Z" fill="#098DBA" style="stroke-width: 1;"/>
  <path d="M 17.505 392.595 C 22.642 396.896 27.455 401.401 32.184 406.145 C 33.283 407.241 33.283 407.241 34.404 408.359 C 36.803 410.754 39.199 413.153 41.594 415.552 C 43.266 417.223 44.937 418.893 46.609 420.564 C 50.1 424.053 53.588 427.544 57.076 431.036 C 61.558 435.523 66.044 440.006 70.531 444.487 C 73.977 447.93 77.421 451.374 80.863 454.82 C 82.518 456.475 84.173 458.129 85.829 459.783 C 88.132 462.083 90.432 464.387 92.731 466.692 C 93.421 467.38 94.111 468.068 94.823 468.777 C 95.444 469.401 96.065 470.025 96.704 470.668 C 97.248 471.212 97.792 471.756 98.353 472.317 C 99.505 473.595 99.505 473.595 99.505 474.595 C 91.909 476.655 85.049 477.206 77.505 474.595 C 67.034 468.576 58.51 458.78 50.21 450.169 C 46.824 446.657 43.347 443.254 39.834 439.869 C 16.213 416.972 16.213 416.972 15.561 404.583 C 15.78 400.395 16.406 396.645 17.505 392.595 Z" fill="#0EB7C1" style="stroke-width: 1;"/>
  <path d="M 315.505 371.595 C 322.505 371.595 322.505 371.595 324.382 373.256 C 324.845 374.024 325.308 374.792 325.786 375.583 C 326.315 376.43 326.844 377.278 327.389 378.151 C 327.922 379.06 328.455 379.97 329.005 380.907 C 329.566 381.818 330.127 382.729 330.704 383.668 C 331.816 385.476 332.918 387.29 334.01 389.111 C 335.886 392.229 337.844 395.287 339.817 398.345 C 340.714 399.761 341.61 401.177 342.505 402.595 C 346.196 398.269 349.038 393.586 351.942 388.72 C 353.77 385.661 355.625 382.622 357.505 379.595 C 357.917 378.892 358.33 378.189 358.755 377.465 C 359.977 375.525 359.977 375.525 362.505 372.595 C 364.485 372.595 366.465 372.595 368.505 372.595 C 368.505 389.755 368.505 406.915 368.505 424.595 C 365.865 424.595 363.225 424.595 360.505 424.595 C 360.175 413.705 359.845 402.815 359.505 391.595 C 355.545 397.535 355.545 397.535 351.505 403.595 C 349.195 406.626 346.897 409.634 344.505 412.595 C 342.321 412.513 342.321 412.513 339.505 411.595 C 337.605 409.385 336.033 407.319 334.442 404.907 C 334.021 404.294 333.6 403.681 333.167 403.05 C 331.93 401.242 330.715 399.421 329.505 397.595 C 328.185 395.615 326.865 393.635 325.505 391.595 C 325.175 402.485 324.845 413.375 324.505 424.595 C 321.535 424.595 318.565 424.595 315.505 424.595 C 315.505 407.105 315.505 389.615 315.505 371.595 Z" fill="#243E4E" style="stroke-width: 1;"/>
  <path d="M 212.505 372.595 C 233.505 372.595 233.505 372.595 241.505 376.595 C 244.865 380.124 245.764 382.844 245.942 387.595 C 245.698 393.203 244.139 396.821 240.317 400.97 C 239.719 401.506 239.121 402.042 238.505 402.595 C 239.786 405.264 241.182 407.718 242.852 410.161 C 243.292 410.812 243.733 411.462 244.186 412.132 C 245.11 413.487 246.034 414.841 246.96 416.194 C 247.399 416.844 247.837 417.493 248.29 418.161 C 248.691 418.749 249.092 419.336 249.505 419.941 C 250.505 421.595 250.505 421.595 251.505 424.595 C 248.015 425.187 244.975 425.369 241.505 424.595 C 238.571 421.891 236.803 418.626 234.88 415.157 C 233.87 413.374 232.837 411.603 231.778 409.849 C 231.339 409.058 230.9 408.267 230.447 407.453 C 227.978 404.722 227.978 404.722 220.505 404.595 C 220.505 411.195 220.505 417.795 220.505 424.595 C 217.865 424.595 215.225 424.595 212.505 424.595 C 212.505 407.435 212.505 390.275 212.505 372.595 Z" fill="#1C394B" style="stroke-width: 1;"/>
  <path d="M 376.505 372.595 C 401.266 372.595 401.266 372.595 408.477 379.478 C 410.855 384.379 410.057 390.313 409.505 395.595 C 407.08 400.802 403.392 404.21 398.208 406.696 C 393.656 408.209 389.272 407.71 384.505 407.595 C 384.505 413.205 384.505 418.815 384.505 424.595 C 381.865 424.595 379.225 424.595 376.505 424.595 C 376.505 407.435 376.505 390.275 376.505 372.595 Z" fill="#1C3848" style="stroke-width: 1;"/>
  <path d="M 294.904 375.496 C 300.374 378.76 304.576 384.352 306.521 390.422 C 308.042 398.664 307.104 406.214 302.904 413.496 C 297.945 420.201 291.005 423.848 282.904 425.496 C 273.599 426.39 267.509 424.385 259.716 419.496 C 253.475 413.744 250.534 405.681 250.154 397.371 C 250.554 389.299 253.28 383.909 259.13 378.398 C 270.063 369.495 282.337 369.181 294.904 375.496 Z M 262.904 385.496 C 259.163 390.449 258.148 394.432 258.388 400.644 C 259.505 406.821 262.908 412.447 268.091 416.058 C 273.395 418.769 278.035 419.235 283.904 418.496 C 290.561 416.158 294.357 412.481 297.904 406.496 C 299.813 400.767 299.815 394.72 297.279 389.183 C 294.628 384.547 291.237 381.82 286.591 379.183 C 277.635 376.892 269.604 378.977 262.904 385.496 Z" fill="#213B4C" style="stroke-width: 1;"/>
  <path d="M 447.505 371.595 C 450.475 371.595 453.445 371.595 456.505 371.595 C 456.629 377.145 456.719 382.694 456.779 388.245 C 456.804 390.131 456.838 392.016 456.882 393.901 C 456.943 396.622 456.971 399.342 456.993 402.064 C 457.019 402.897 457.044 403.731 457.071 404.59 C 457.074 410.732 455.46 414.869 451.505 419.595 C 445.439 424.927 440.338 425.975 432.325 425.868 C 427.236 425.375 423.399 423.674 419.938 419.876 C 415.786 414.293 415.365 409.643 415.407 402.771 C 415.409 401.479 415.409 401.479 415.411 400.16 C 415.417 397.409 415.429 394.658 415.442 391.907 C 415.447 390.042 415.452 388.177 415.456 386.312 C 415.467 381.739 415.484 377.167 415.505 372.595 C 418.475 372.595 421.445 372.595 424.505 372.595 C 424.519 374.328 424.519 374.328 424.533 376.096 C 424.573 380.392 424.639 384.687 424.712 388.983 C 424.74 390.84 424.761 392.698 424.776 394.555 C 424.797 397.229 424.844 399.902 424.895 402.575 C 424.896 403.403 424.898 404.23 424.899 405.082 C 425.027 410.16 425.667 412.92 429.505 416.595 C 432.698 418.192 436.03 417.968 439.505 417.595 C 442.253 416.4 443.873 415.481 445.611 413.043 C 446.976 409.301 446.864 405.628 446.919 401.673 C 446.938 400.813 446.957 399.953 446.977 399.067 C 447.037 396.326 447.083 393.586 447.13 390.845 C 447.168 388.984 447.207 387.123 447.247 385.263 C 447.343 380.707 447.427 376.151 447.505 371.595 Z" fill="#233D4C" style="stroke-width: 1;"/>
  <path d="M 489.755 373.595 C 490.992 374.255 492.23 374.915 493.505 375.595 C 493.505 378.565 493.522 380.731 493.522 383.791 C 492.915 383.288 491.713 382.777 491.505 382.595 C 487.215 380.856 483.602 379.446 478.942 379.407 C 478.157 379.393 477.372 379.379 476.563 379.364 C 474.28 379.403 474.28 379.403 472.505 381.595 C 472.296 385.028 472.296 385.028 473.505 388.595 C 475.802 390.528 477.679 391.857 480.255 393.282 C 481.501 394.013 482.746 394.746 483.989 395.482 C 484.887 396.008 484.887 396.008 485.803 396.546 C 489.473 398.809 492.114 401.008 494.505 404.595 C 495.199 409.742 495.089 414.255 493.005 419.032 C 488.684 423.46 484.247 425.784 478.005 426.032 C 472.184 425.76 467.355 423.828 462.505 420.595 C 462.212 418.212 462.212 418.212 462.317 415.47 C 462.344 414.56 462.371 413.65 462.399 412.712 C 462.434 412.013 462.469 411.315 462.505 410.595 C 463.165 410.595 463.825 410.595 464.505 410.595 C 465.082 411.193 465.66 411.791 466.255 412.407 C 469.891 415.943 473.08 417.447 478.13 417.97 C 481.704 417.573 483.204 417.355 485.505 414.595 C 486.255 411.681 486.255 411.681 485.505 408.595 C 482.64 404.743 479.141 402.712 475.067 400.22 C 469.688 396.902 465.391 393.367 462.505 387.595 C 461.917 383.922 461.874 381.549 463.962 378.392 C 470.835 370.346 479.986 369.207 489.755 373.595 Z" fill="#213B4B" style="stroke-width: 1;"/>
  <path d="M 17.505 435.595 C 23.263 439.678 28.326 444.132 33.286 449.146 C 33.985 449.845 34.684 450.544 35.404 451.265 C 36.865 452.729 38.324 454.196 39.78 455.664 C 42.021 457.924 44.27 460.175 46.52 462.425 C 47.943 463.852 49.364 465.28 50.786 466.708 C 51.798 467.722 51.798 467.722 52.831 468.757 C 53.446 469.378 54.061 469.999 54.694 470.639 C 55.238 471.187 55.783 471.735 56.344 472.3 C 57.505 473.595 57.505 473.595 57.505 474.595 C 47.829 476.012 37.689 477.23 29.192 471.583 C 22.488 466.096 17.432 460.409 16.465 451.568 C 16.278 446.174 16.728 440.927 17.505 435.595 Z" fill="#1FB086" style="stroke-width: 1;"/>
  <path d="M 384.505 378.595 C 394.819 378.595 394.819 378.595 399.505 382.595 C 402.008 386.349 401.957 388.142 401.505 392.595 C 399.196 396.965 397.991 398.351 393.505 400.595 C 390.535 400.595 387.565 400.595 384.505 400.595 C 384.505 393.335 384.505 386.075 384.505 378.595 Z" fill="#ECEDEE" style="stroke-width: 1;"/>
  <path d="M 220.505 378.595 C 231.916 378.595 231.916 378.595 236.505 382.595 C 238.105 385.797 238.004 389.121 237.505 392.595 C 235.711 395.405 234.486 397.104 231.505 398.595 C 227.834 398.733 224.178 398.638 220.505 398.595 C 220.505 391.995 220.505 385.395 220.505 378.595 Z" fill="#EEF0F0" style="stroke-width: 1;"/>
  <path d="M 30.505 371.595 C 31.165 371.925 31.825 372.255 32.505 372.595 C 30.525 374.905 28.545 377.215 26.505 379.595 C 25.845 378.605 25.185 377.615 24.505 376.595 C 26.485 374.945 28.465 373.295 30.505 371.595 Z" fill="#0D9CB8" style="stroke-width: 1;"/>
  <path d="M 64.463 385.196 L 63.753 390.209" style="fill: rgb(33, 59, 75);"/>
</svg>