<?xml version="1.0" encoding="UTF-8"?>
<svg version="1.1" xmlns="http://www.w3.org/2000/svg" width="720" height="720">
<path d="M0 0 C237.6 0 475.2 0 720 0 C720 237.6 720 475.2 720 720 C482.4 720 244.8 720 0 720 C0 482.4 0 244.8 0 0 Z " fill="#F6F6F6" transform="translate(0,0)"/>
<path d="M0 0 C7.90649239 4.89449529 12.50839575 10.96991707 17 19 C17.65162109 20.11761719 17.65162109 20.11761719 18.31640625 21.2578125 C19.22881086 22.8282929 20.11793407 24.41228133 21 26 C24.00812866 24.66712006 25.92594177 23.26247542 28.1015625 20.8046875 C28.66907227 20.17473877 29.23658203 19.54479004 29.82128906 18.89575195 C30.41651367 18.22890381 31.01173828 17.56205566 31.625 16.875 C39.79628252 7.95634408 47.28782085 0.80377194 59 -3 C59.99 -3.33 60.98 -3.66 62 -4 C75.75685013 -4.91313151 87.61857671 -3.44348539 99 5 C99.60457031 5.44085938 100.20914063 5.88171875 100.83203125 6.3359375 C107.95516079 11.95374337 113.48770159 19.96433471 115 29 C116.12806822 43.44150703 114.90578841 56.07017478 106 68 C101.03975188 73.76753822 95.50780925 79.01008661 90.0625 84.3125 C88.61933569 85.73911538 87.17727046 87.16684348 85.73632812 88.59570312 C79.88898182 94.36919279 74.04299931 100.05891684 67.77806091 105.38224792 C66.01591843 106.98551676 64.50971971 108.65995234 63 110.5 C61.00126133 112.9175725 58.96036139 114.97857706 56.5625 117 C49.62871137 122.8754021 43.38070644 129.53828849 37 136 C33.26741507 134.44343281 30.91435665 132.15022699 28.08300781 129.29418945 C27.60759552 128.81746292 27.13218323 128.34073639 26.6423645 127.8495636 C25.07463309 126.27535252 23.51400487 124.69428349 21.953125 123.11328125 C20.85750755 122.01138653 19.76136878 120.91000995 18.66473389 119.80912781 C15.77673628 116.90783214 12.89434797 114.00103282 10.0135498 111.09259033 C5.41871129 106.45465632 0.81728801 101.82328259 -3.7876358 97.195364 C-5.38520113 95.58768724 -6.97924079 93.97657756 -8.57293701 92.36506653 C-13.32967006 87.56916795 -18.12832314 82.89443568 -23.26391602 78.50331116 C-27.56172567 74.78174857 -31.51011109 70.67580994 -35.52783203 66.6574707 C-37.12384552 65.06365289 -38.72771584 63.47803365 -40.33203125 61.89257812 C-57.12146846 45.20249248 -57.12146846 45.20249248 -57.5625 32 C-57.42376554 21.93184214 -53.57370272 13.47644867 -46.6875 6 C-32.89679995 -6.26875342 -16.46504343 -8.67695091 0 0 Z " fill="#0CB6C0" transform="translate(179,288)"/>
<path d="M0 0 C0.70640625 -0.03996094 1.4128125 -0.07992188 2.140625 -0.12109375 C9.98001901 1.55709988 15.79052423 8.06967937 21.1875 13.58203125 C21.95304199 14.35181808 22.71858398 15.12160492 23.50732422 15.91471863 C25.92874181 18.35280545 28.33946371 20.80115916 30.75 23.25 C32.39904153 24.91410349 34.04877444 26.57752215 35.69921875 28.24023438 C39.72417533 32.29810412 43.74042425 36.36443482 47.75 40.4375 C51.86734566 38.54938747 54.63772577 35.77035041 57.7578125 32.5546875 C58.32450653 31.98042023 58.89120056 31.40615295 59.47506714 30.81448364 C61.27993935 28.98522841 63.07820279 27.14968548 64.875 25.3125 C67.2469309 22.88756506 69.62526304 20.46918498 72.0078125 18.0546875 C72.82658371 17.21102127 72.82658371 17.21102127 73.66189575 16.35031128 C74.98704824 15.0079077 76.36418422 13.71718399 77.75 12.4375 C78.41 12.4375 79.07 12.4375 79.75 12.4375 C79.75 11.7775 79.75 11.1175 79.75 10.4375 C83.77480766 6.82905175 88.03392913 6.98833431 93.16796875 7.16015625 C96.52238359 7.52046405 98.21352195 8.19090515 100.75 10.4375 C101.28625 10.88996094 101.8225 11.34242188 102.375 11.80859375 C106.71506364 15.99796074 107.44105667 19.5790852 107.546875 25.49609375 C105.38226591 33.4860479 97.78243989 39.67612635 92.0703125 45.3125 C90.85116653 46.52740112 90.85116653 46.52740112 89.60739136 47.7668457 C87.03462309 50.32850404 84.45495619 52.88308316 81.875 55.4375 C80.1193294 57.18312894 78.36411636 58.92921821 76.609375 60.67578125 C72.32819321 64.93502467 68.04133991 69.18849273 63.75 73.4375 C58.04603982 68.69997416 52.81204254 63.61521863 47.59765625 58.34765625 C46.73869247 57.48490585 45.8797287 56.62215546 44.99473572 55.73326111 C41.34561893 52.06790457 37.70248975 48.39661792 34.05883789 44.72583008 C31.38636596 42.03518619 28.71083168 39.34761389 26.03515625 36.66015625 C25.22345474 35.8401564 24.41175323 35.02015656 23.57545471 34.17530823 C19.33816842 29.9200228 15.03064787 25.82546056 10.46348572 21.92489624 C7.9346299 19.72971563 5.60155744 17.38421796 3.25 15 C2.3940625 14.13503906 1.538125 13.27007812 0.65625 12.37890625 C0.0271875 11.73824219 -0.601875 11.09757812 -1.25 10.4375 C-5.00180831 12.13986236 -7.64511164 14.44002547 -10.6640625 17.1953125 C-12.25 18.4375 -12.25 18.4375 -14.25 18.4375 C-14.932637 12.06622136 -13.9076599 9.11463452 -9.953125 4.1015625 C-6.95674366 1.1739055 -4.15747303 0.12711698 0 0 Z " fill="#F2F5F6" transform="translate(159.25,304.5625)"/>
<path d="M0 0 C0.515625 0.66 1.03125 1.32 1.5625 2 C6.03481921 7.50439287 10.33814754 12.6791126 16 17 C18.8125 19.625 18.8125 19.625 21 22 C21 22.66 21 23.32 21 24 C21.99 24.33 22.98 24.66 24 25 C25.578125 26.6015625 25.578125 26.6015625 27.25 28.625 C31.53481039 33.66754528 36.00384304 38.42067421 41.125 42.625 C44.75123307 45.62058384 48.00380381 48.70494495 50.875 52.4375 C52.66006653 54.59008023 54.30550223 56.16927723 56.4375 57.9375 C58.75287481 59.8604384 60.48989263 61.59038343 62.4375 63.9375 C64.54502526 66.4562497 66.51989739 68.39075385 69 70.5 C72.44555503 73.43486301 75.16720935 76.47815217 78 80 C79.62918435 81.71019352 81.30531633 83.35373587 83 85 C81.34136495 89.32504836 78.128959 92.09418825 74.875 95.25 C74.31167969 95.80429687 73.74835938 96.35859375 73.16796875 96.9296875 C71.78313972 98.29104485 70.39216796 99.64614859 69 101 C65.26741507 99.44343281 62.91435665 97.15022699 60.08300781 94.29418945 C59.60759552 93.81746292 59.13218323 93.34073639 58.6423645 92.8495636 C57.07463309 91.27535252 55.51400487 89.69428349 53.953125 88.11328125 C52.85750755 87.01138653 51.76136878 85.91000995 50.66473389 84.80912781 C47.77673628 81.90783214 44.89434797 79.00103282 42.0135498 76.09259033 C37.41871129 71.45465632 32.81728801 66.82328259 28.2123642 62.195364 C26.61479887 60.58768724 25.02075921 58.97657756 23.42706299 57.36506653 C18.67395341 52.57282015 13.87890894 47.90217448 8.7472229 43.51445007 C6.05339199 41.17950333 3.52669328 38.68881985 1.00390625 36.171875 C0.48489243 35.65618958 -0.0341214 35.14050415 -0.56886292 34.60919189 C-1.64802902 33.53502688 -2.72590305 32.45956224 -3.80249023 31.3828125 C-5.45344249 29.73407893 -7.11228308 28.09355209 -8.77148438 26.453125 C-9.8260082 25.40153016 -10.88006236 24.3494641 -11.93359375 23.296875 C-12.42830673 22.80934753 -12.92301971 22.32182007 -13.432724 21.81951904 C-15.69665695 19.54026434 -16.9674174 18.09774781 -18 15 C-17.28714844 14.41992188 -16.57429687 13.83984375 -15.83984375 13.2421875 C-10.50367741 8.88994416 -5.20369116 4.50986567 0 0 Z " fill="#098DBA" transform="translate(147,323)"/>
<path d="M0 0 C5.47086552 3.26393463 9.67195581 8.85616593 11.6171875 14.92578125 C13.13838271 23.16817569 12.20001825 30.71831155 8 38 C3.04154336 44.70547764 -3.89818286 48.35191172 -12 50 C-21.30452786 50.89382079 -27.39484603 48.88950838 -35.1875 44 C-41.42852343 38.24846861 -44.36938933 30.18499965 -44.75 21.875 C-44.3495007 13.80271415 -41.62314167 8.41338084 -35.7734375 2.90234375 C-24.84072721 -6.00105075 -12.56677419 -6.31444173 0 0 Z " fill="#F0F1F1" transform="translate(403,337)"/>
<path d="M0 0 C5.13792366 4.30104237 9.94999363 8.80644002 14.67944336 13.55004883 C15.77825333 14.64623032 15.77825333 14.64623032 16.89926147 15.76455688 C19.29862905 18.15955389 21.69435702 20.55815309 24.08984375 22.95703125 C25.76121146 24.62772498 27.43272755 26.29827026 29.10438538 27.96867371 C32.59506218 31.45788042 36.08393394 34.94887934 39.5715332 38.44116211 C44.05301282 42.9283652 48.53900231 47.41102867 53.02632809 51.89238453 C56.47234836 55.3348032 59.91599814 58.77958523 63.35891914 62.22510338 C65.01328589 63.88013914 66.66840109 65.53442707 68.32426262 67.1879673 C70.62736824 69.48855014 72.9272726 71.79228483 75.22631836 74.09692383 C75.91662643 74.78520767 76.60693451 75.47349152 77.31816101 76.18263245 C77.93910645 76.80639771 78.56005188 77.43016296 79.19981384 78.0728302 C79.7437979 78.61719129 80.28778196 79.16155237 80.84825039 79.72240925 C82 81 82 81 82 82 C74.40430694 84.06064544 67.54415247 84.61066245 60 82 C49.52933337 75.98088404 41.00511658 66.18523549 32.70556641 57.57373047 C29.31909518 54.06181176 25.84214787 50.65902123 22.32965469 47.27376938 C-1.29135182 24.37761298 -1.29135182 24.37761298 -1.9437561 11.9881897 C-1.72406253 7.79988278 -1.09880382 4.05027298 0 0 Z " fill="#0EB7C1" transform="translate(122,354)"/>
<path d="M0 0 C7 0 7 0 8.87695312 1.66137695 C9.34037109 2.42925537 9.80378906 3.19713379 10.28125 3.98828125 C10.81016846 4.83551758 11.33908691 5.68275391 11.8840332 6.55566406 C12.41730225 7.46541992 12.95057129 8.37517578 13.5 9.3125 C14.06098389 10.22354492 14.62196777 11.13458984 15.19995117 12.07324219 C16.31178709 13.88140377 17.41385968 15.69561054 18.50537109 17.51611328 C20.38187592 20.63463012 22.33937483 23.69185691 24.3125 26.75 C25.20942816 28.16597376 26.10580689 29.58229746 27 31 C30.6917817 26.6741005 33.53307595 21.99100893 36.4375 17.125 C38.26592286 14.06663943 40.12087624 11.02743957 42 8 C42.41266113 7.29713867 42.82532227 6.59427734 43.25048828 5.87011719 C44.47265625 3.9296875 44.47265625 3.9296875 47 1 C48.98 1 50.96 1 53 1 C53 18.16 53 35.32 53 53 C50.36 53 47.72 53 45 53 C44.67 42.11 44.34 31.22 44 20 C40.04 25.94 40.04 25.94 36 32 C33.69045774 35.03127422 31.39264521 38.03910155 29 41 C26.81640625 40.91796875 26.81640625 40.91796875 24 40 C22.10064348 37.790425 20.52819857 35.7243629 18.9375 33.3125 C18.51662109 32.69955078 18.09574219 32.08660156 17.66210938 31.45507812 C16.42529903 29.64684223 15.21030014 27.82607891 14 26 C12.68 24.02 11.36 22.04 10 20 C9.67 30.89 9.34 41.78 9 53 C6.03 53 3.06 53 0 53 C0 35.51 0 18.02 0 0 Z " fill="#243E4E" transform="translate(420,333)"/>
<path d="M0 0 C21 0 21 0 29 4 C32.36065034 7.52868285 33.25917122 10.24932124 33.4375 15 C33.19329968 20.60818673 31.63405367 24.22588459 27.8125 28.375 C27.214375 28.91125 26.61625 29.4475 26 30 C27.28138602 32.66872929 28.6778816 35.12313551 30.34765625 37.56640625 C30.78787109 38.21673828 31.22808594 38.86707031 31.68164062 39.53710938 C32.60527136 40.89185487 33.52975648 42.24601825 34.45507812 43.59960938 C34.89400391 44.24865234 35.33292969 44.89769531 35.78515625 45.56640625 C36.18613525 46.15365479 36.58711426 46.74090332 37.00024414 47.34594727 C38 49 38 49 39 52 C35.51090628 52.5922656 32.47083574 52.77436206 29 52 C26.06643431 49.29606324 24.29880378 46.03080088 22.375 42.5625 C21.3659384 40.77871471 20.33271596 39.0083362 19.2734375 37.25390625 C18.83435059 36.46314697 18.39526367 35.6723877 17.94287109 34.85766602 C15.47334687 32.12695751 15.47334687 32.12695751 8 32 C8 38.6 8 45.2 8 52 C5.36 52 2.72 52 0 52 C0 34.84 0 17.68 0 0 Z " fill="#1C394B" transform="translate(317,334)"/>
<path d="M0 0 C24.76141079 0 24.76141079 0 31.97265625 6.8828125 C34.35088127 11.78394542 33.55276675 17.71800661 33 23 C30.57593611 28.20724835 26.88792146 31.61497644 21.703125 34.1015625 C17.15109099 35.61452178 12.76776044 35.11488579 8 35 C8 40.61 8 46.22 8 52 C5.36 52 2.72 52 0 52 C0 34.84 0 17.68 0 0 Z " fill="#1C3848" transform="translate(481,334)"/>
<path d="M0 0 C5.47086552 3.26393463 9.67195581 8.85616593 11.6171875 14.92578125 C13.13838271 23.16817569 12.20001825 30.71831155 8 38 C3.04154336 44.70547764 -3.89818286 48.35191172 -12 50 C-21.30452786 50.89382079 -27.39484603 48.88950838 -35.1875 44 C-41.42852343 38.24846861 -44.36938933 30.18499965 -44.75 21.875 C-44.3495007 13.80271415 -41.62314167 8.41338084 -35.7734375 2.90234375 C-24.84072721 -6.00105075 -12.56677419 -6.31444173 0 0 Z M-32 10 C-35.74039497 14.95349604 -36.75521058 18.93632574 -36.515625 25.1484375 C-35.39875609 31.32506102 -31.99586763 36.95103083 -26.8125 40.5625 C-21.50810173 43.27363689 -16.86857573 43.73888001 -11 43 C-4.34220333 40.66190763 -0.54681089 36.98524338 3 31 C4.90948276 25.27155171 4.91185715 19.22437495 2.375 13.6875 C-0.27568624 9.05114067 -3.66685904 6.32421514 -8.3125 3.6875 C-17.26823811 1.39649723 -25.29968499 3.48077458 -32 10 Z " fill="#213B4C" transform="translate(403,337)"/>
<path d="M0 0 C2.97 0 5.94 0 9 0 C9.12422629 5.55004849 9.21463317 11.09927582 9.2746582 16.65039062 C9.29969777 18.53595083 9.33373999 20.42141498 9.37719727 22.30664062 C9.43831786 25.02758564 9.46631493 27.74724027 9.48828125 30.46875 C9.51408768 31.30241089 9.5398941 32.13607178 9.56648254 32.99499512 C9.56938117 39.13698173 7.95574714 43.27420527 4 48 C-2.0653964 53.33238872 -7.16697841 54.38027362 -15.1796875 54.2734375 C-20.26813094 53.78009811 -24.10545861 52.07879853 -27.56640625 48.28125 C-31.71858245 42.69769682 -32.14000653 38.04854922 -32.09765625 31.17578125 C-32.09553383 29.88367989 -32.09553383 29.88367989 -32.09336853 28.56547546 C-32.0877714 25.81444831 -32.07521946 23.06350256 -32.0625 20.3125 C-32.05748463 18.4472668 -32.05292179 16.58203233 -32.04882812 14.71679688 C-32.03780292 10.14449989 -32.02054027 5.57226375 -32 1 C-29.03 1 -26.06 1 -23 1 C-22.98598145 2.73286255 -22.98598145 2.73286255 -22.97167969 4.50073242 C-22.9317339 8.79685682 -22.86596254 13.09226856 -22.79248047 17.38793945 C-22.76429741 19.24526803 -22.7430696 21.10271595 -22.72900391 22.96020508 C-22.70753716 25.63424661 -22.66086931 28.30685735 -22.609375 30.98046875 C-22.60814636 31.80773972 -22.60691772 32.63501068 -22.60565186 33.48735046 C-22.47734341 38.565593 -21.8371345 41.32491575 -18 45 C-14.80621918 46.59689041 -11.47478685 46.37348957 -8 46 C-5.25181043 44.80513497 -3.63187726 43.88579882 -1.89306641 41.44824219 C-0.52820238 37.70661933 -0.64081405 34.03277681 -0.5859375 30.078125 C-0.56657135 29.21813904 -0.5472052 28.35815308 -0.5272522 27.47210693 C-0.46758186 24.73150479 -0.4211214 21.99086036 -0.375 19.25 C-0.33680866 17.38930483 -0.29775625 15.52862712 -0.2578125 13.66796875 C-0.16189065 9.11212136 -0.07781332 4.55619121 0 0 Z " fill="#233D4C" transform="translate(552,333)"/>
<path d="M0 0 C1.2375 0.66 2.475 1.32 3.75 2 C3.75 4.97 3.75 7.94 3.75 11 C3.09 11 2.43 11 1.75 11 C1.75 10.34 1.75 9.68 1.75 9 C-2.53969987 7.26093248 -6.15220251 5.85088795 -10.8125 5.8125 C-11.59753906 5.79832031 -12.38257813 5.78414063 -13.19140625 5.76953125 C-15.4743545 5.80832491 -15.4743545 5.80832491 -17.25 8 C-17.45824578 11.43364107 -17.45824578 11.43364107 -16.25 15 C-13.95250903 16.93362133 -12.07535508 18.26167082 -9.5 19.6875 C-8.2536783 20.41796863 -7.00885911 21.15100743 -5.765625 21.88671875 C-4.8674707 22.41338135 -4.8674707 22.41338135 -3.95117188 22.95068359 C-0.28171763 25.21407543 2.35909096 27.41363644 4.75 31 C5.44484389 36.14669251 5.33452659 40.6604599 3.25 45.4375 C-1.07007245 49.86557427 -5.50772549 52.189534 -11.75 52.4375 C-17.57092153 52.16558844 -22.39997374 50.23335084 -27.25 47 C-27.54296875 44.6171875 -27.54296875 44.6171875 -27.4375 41.875 C-27.41042969 40.96492188 -27.38335938 40.05484375 -27.35546875 39.1171875 C-27.32066406 38.41851562 -27.28585937 37.71984375 -27.25 37 C-26.59 37 -25.93 37 -25.25 37 C-24.6725 37.598125 -24.095 38.19625 -23.5 38.8125 C-19.86351864 42.34796799 -16.67473152 43.85261398 -11.625 44.375 C-8.05081325 43.97786814 -6.55025817 43.7603098 -4.25 41 C-3.49939151 38.08617271 -3.49939151 38.08617271 -4.25 35 C-7.11450994 31.14772801 -10.6139306 29.11687011 -14.6875 26.625 C-20.06704697 23.30724971 -24.36379588 19.77240823 -27.25 14 C-27.83770522 10.3268424 -27.88095384 7.9540428 -25.79296875 4.796875 C-18.91973934 -3.2484209 -9.76806768 -4.38787802 0 0 Z " fill="#213B4B" transform="translate(594.25,335)"/>
<path d="M0 0 C5.75833366 4.08362027 10.82130709 8.53672973 15.78125 13.55078125 C16.48020386 14.25019333 17.17915771 14.94960541 17.89929199 15.67021179 C19.36037516 17.13429301 20.81905083 18.60078049 22.27539062 20.06958008 C24.51631858 22.32895289 26.76533535 24.58003286 29.015625 26.83007812 C30.43797608 28.25733821 31.85986817 29.6850559 33.28125 31.11328125 C34.29354675 32.12724724 34.29354675 32.12724724 35.32629395 33.16169739 C35.94113647 33.78291977 36.555979 34.40414215 37.18945312 35.04418945 C37.73380005 35.59234818 38.27814697 36.1405069 38.83898926 36.70527649 C40 38 40 38 40 39 C30.32446821 40.41740191 20.18435682 41.63498827 11.6875 35.98828125 C4.98319669 30.50070006 -0.07214168 24.81448471 -1.0390625 15.97265625 C-1.22684122 10.57867999 -0.77648191 5.33226558 0 0 Z " fill="#1FB086" transform="translate(122,397)"/>
<path d="M0 0 C10.31428571 0 10.31428571 0 15 4 C17.50304378 7.75456567 17.45280074 9.54745934 17 14 C14.69148146 18.36969581 13.48677131 19.75661434 9 22 C6.03 22 3.06 22 0 22 C0 14.74 0 7.48 0 0 Z " fill="#ECEDEE" transform="translate(489,340)"/>
<path d="M0 0 C11.41176471 0 11.41176471 0 16 4 C17.60086627 7.20173254 17.49917089 10.52577059 17 14 C15.20636089 16.8100346 13.98119065 18.50940468 11 20 C7.32984725 20.1377685 3.67388652 20.04271961 0 20 C0 13.4 0 6.8 0 0 Z " fill="#EEF0F0" transform="translate(325,340)"/>
<path d="M0 0 C0.33 0 0.66 0 1 0 C1 11.22 1 22.44 1 34 C0.67 34 0.34 34 0 34 C-0.33 24.43 -0.66 14.86 -1 5 C-1.99 5.66 -2.98 6.32 -4 7 C-2.92598892 4.08482708 -2.22189824 2.22189824 0 0 Z " fill="#E1E6E5" transform="translate(464,352)"/>
<path d="M0 0 C0.66 0.33 1.32 0.66 2 1 C0.02 3.31 -1.96 5.62 -4 8 C-4.66 7.01 -5.32 6.02 -6 5 C-4.02 3.35 -2.04 1.7 0 0 Z " fill="#0D9CB8" transform="translate(135,333)"/>
</svg>
